<?xml version="1.0" standalone="no"?>
<!DOCTYPE svg PUBLIC "-//W3C//DTD SVG 20010904//EN"
 "http://www.w3.org/TR/2001/REC-SVG-20010904/DTD/svg10.dtd">
<svg version="1.0" xmlns="http://www.w3.org/2000/svg"
 width="700.000000pt" height="700.000000pt" viewBox="0 0 700.000000 700.000000"
 preserveAspectRatio="xMidYMid meet">
<metadata>
Created by potrace 1.11, written by Peter Selinger 2001-2013
</metadata>
<g transform="translate(0.000000,700.000000) scale(0.100000,-0.100000)"
fill="#000000" stroke="none">
<path d="M0 6983 c0 -23 6960 -6983 6983 -6983 16 0 17 186 17 3465 0 2983 -2
3465 -14 3465 -8 0 -16 -6 -19 -12 -3 -10 -9 -8 -24 4 -14 13 -18 27 -15 48
l4 30 -3466 0 c-3294 0 -3466 -1 -3466 -17z"/>
<path d="M0 3475 l0 -3475 3477 0 3478 0 -3475 3475 c-1911 1911 -3476 3475
-3477 3475 -2 0 -3 -1564 -3 -3475z"/>
</g>
</svg>
