<?xml version="1.0" encoding="UTF-8"?>
<svg viewBox="0 0 360 292" version="1.1" xmlns="http://www.w3.org/2000/svg" xmlns:xlink="http://www.w3.org/1999/xlink">
    <title>Slice Copy</title>
    <g id="Page-1" stroke="none" stroke-width="1" fill="none" fill-rule="evenodd">
        <g id="Artboard" transform="translate(-48.000000, -95.000000)" fill="#FFFFFF">
            <g id="online" transform="translate(48.000000, 95.000000)">
                <path d="M185.32,36 C229.553533,36 266.508603,67.1628083 275.428455,108.731671 C279.419301,108.039914 283.52762,107.68 287.72,107.68 C327.307771,107.68 359.4,139.772229 359.4,179.36 C359.4,218.947771 327.307771,251.04 287.72,251.04 C286.359203,251.04 285.007262,251.00208 283.665178,250.92724 C283.323852,251.001508 282.966421,251.04 282.6,251.04 L77.8,251.04 C35.3845315,251.04 1,216.655469 1,174.24 C1,131.824531 35.3845315,97.44 77.8,97.44 C84.6247777,97.44 91.2416364,98.3302083 97.5407933,100.000842 C109.440664,62.8755041 144.241777,36 185.32,36 Z" id="cloud"></path>
            </g>
        </g>
    </g>
</svg>