<?xml version="1.0" encoding="UTF-8"?>
<svg viewBox="0 0 360 292" version="1.1" xmlns="http://www.w3.org/2000/svg" xmlns:xlink="http://www.w3.org/1999/xlink">
    <title>Slice</title>
    <g id="Page-1" stroke="none" stroke-width="1" fill="none" fill-rule="evenodd">
        <g id="Artboard" transform="translate(-48.000000, -95.000000)">
            <g id="offline" transform="translate(48.000000, 95.000000)">
                <path d="M185.32,36 C229.553533,36 266.508603,67.1628083 275.428455,108.731671 C279.419301,108.039914 283.52762,107.68 287.72,107.68 C327.307771,107.68 359.4,139.772229 359.4,179.36 C359.4,218.947771 327.307771,251.04 287.72,251.04 C286.359203,251.04 285.007262,251.00208 283.665178,250.92724 C283.323852,251.001508 282.966421,251.04 282.6,251.04 L77.8,251.04 C35.3845315,251.04 1,216.655469 1,174.24 C1,131.824531 35.3845315,97.44 77.8,97.44 C84.6247777,97.44 91.2416364,98.3302083 97.5407933,100.000842 C109.440664,62.8755041 144.241777,36 185.32,36 Z" id="cloud" fill="#FFFFFF"></path>
                <path d="M324.534363,-0.974362613 C321.960807,-3.54791807 318.587751,-4.83469542 315.214695,-4.83469542 C311.841639,-4.83469542 308.468583,-3.54791807 305.895028,-0.974363276 L30.7456371,274.175028 C28.1720819,276.748583 26.8853046,280.121639 26.8853046,283.494695 C26.8853046,286.867751 28.1720819,290.240807 30.7456367,292.814363 C33.3191926,295.387918 36.6922486,296.674695 40.0653046,296.674695 C43.4383605,296.674695 46.8114165,295.387918 49.3849718,292.814363 L324.534363,17.6649721 C327.107918,15.0914165 328.394695,11.7183605 328.394695,8.34530458 C328.394695,4.97224861 327.107918,1.59919262 324.534363,-0.974362613 Z" id="cross" stroke="#FFFFFF" stroke-width="11" fill="#0A0B27" fill-rule="nonzero"></path>
            </g>
        </g>
    </g>
</svg>