<?xml version="1.0" encoding="UTF-8"?>
<svg viewBox="0 0 24 24" version="1.1" xmlns="http://www.w3.org/2000/svg" xmlns:xlink="http://www.w3.org/1999/xlink">
    <title>Slice</title>
    <g id="Page-1" stroke="none" stroke-width="1" fill="none" fill-rule="evenodd">
        <g id="star-(1)" fill="#000000" fill-rule="nonzero">
            <path d="M23.9655938,8.73075 C23.8829063,8.47617187 23.662875,8.2906875 23.3980313,8.25220312 L15.9579375,7.17103125 L12.6305625,0.429140625 C12.5121094,0.189140625 12.2677031,0.03721875 12.0000469,0.03721875 C11.7324375,0.03721875 11.4879844,0.1891875 11.3695312,0.429140625 L8.04196875,7.17107812 L0.602015625,8.25220312 C0.337171875,8.2906875 0.117140625,8.47621875 0.034453125,8.73075 C-0.04828125,8.98528125 0.02071875,9.26470312 0.21234375,9.4515 L5.59584375,14.6993906 L4.32515625,22.1095312 C4.27992188,22.3732969 4.38839063,22.6399219 4.60490625,22.7971875 C4.821375,22.9544531 5.10834375,22.9752187 5.34539063,22.8507187 L12.0000052,19.3521563 L18.6544219,22.8507656 C18.7573125,22.9048594 18.869625,22.9315312 18.9815625,22.9315312 C19.1273438,22.9315312 19.2724688,22.88625 19.3949063,22.7972344 C19.6114219,22.6399219 19.7198906,22.3733437 19.6746562,22.1095312 L18.4035938,14.6993906 L23.7876563,9.45154687 C23.9793281,9.26470312 24.0483281,8.98528125 23.9655938,8.73075 Z M17.1573281,13.950375 C16.9915781,14.1119063 16.9159219,14.3446875 16.9551094,14.5727813 L18.0478125,20.9430469 L12.3272812,17.9354062 C12.1224375,17.8277344 11.8777031,17.8277344 11.6728594,17.9354062 L5.952,20.9430469 L7.044375,14.5727344 C7.08346875,14.3446406 7.00785937,14.1119531 6.84220312,13.9504219 L2.2141875,9.43898437 L8.61004687,8.5095 C8.83907812,8.47621875 9.03698437,8.33240625 9.13945312,8.12489062 L12,2.32898438 L14.8604531,8.12484375 C14.9629219,8.33235937 15.1608281,8.47621875 15.3898594,8.5095 L21.7858125,9.4389375 L17.1573281,13.950375 Z" id="Shape"></path>
        </g>
    </g>
</svg>